<?xml version="1.0" encoding="UTF-8" standalone="no"?>
<!DOCTYPE svg PUBLIC "-//W3C//DTD SVG 1.1//EN" "http://www.w3.org/Graphics/SVG/1.1/DTD/svg11.dtd">
<svg width="100%" height="100%" viewBox="0 0 66 39" version="1.1" xmlns="http://www.w3.org/2000/svg" xmlns:xlink="http://www.w3.org/1999/xlink" xml:space="preserve" xmlns:serif="http://www.serif.com/" style="fill-rule:evenodd;clip-rule:evenodd;stroke-linejoin:round;stroke-miterlimit:2;">
    <g transform="matrix(1,0,0,1,-17.0002,-30.9999)">
        <g transform="matrix(1,0,0,1,0,-952.362)">
            <path d="M83,1002.36C83,1001.9 82.72,1001.28 82.436,1000.99L66.436,983.986C65.689,983.214 64.479,983.125 63.608,983.908C62.83,984.609 62.81,985.976 63.53,986.737L76.374,1000.36L19,1000.36C17.896,1000.36 17,1001.26 17,1002.36C17,1003.47 17.896,1004.36 19,1004.36L76.374,1004.36L63.53,1017.99C62.81,1018.75 62.861,1020.08 63.608,1020.82C64.397,1021.59 65.701,1021.52 66.436,1020.74L82.436,1003.74C82.906,1003.28 82.992,1002.83 83,1002.36Z" style="fill-rule:nonzero;"/>
        </g>
    </g>
</svg>
